<?xml version="1.0" encoding="utf-8"?>
<svg width="142.81755mm" height="142.81755mm" viewBox="0 0 142.81755 142.81755" version="1.1" id="svg5" xmlns="http://www.w3.org/2000/svg">
  <circle style="opacity: 1; fill-opacity: 1; stroke: rgb(0, 0, 0); stroke-width: 2.81755; stroke-linecap: round; stroke-linejoin: round; stroke-dasharray: none; stroke-opacity: 1; fill: rgb(100, 50, 150);" id="path1097" cx="71.409" cy="71.409" r="70"/>
  <path style="fill: none; stroke-width: 4.43773; stroke-linecap: round; stroke-linejoin: round; stroke-opacity: 0.981088; stroke: rgb(255, 255, 255);" d="M 16.855 104.035 C 16.976 104.016 17.098 103.995 17.22 103.973 C 17.341 103.953 17.463 103.931 17.585 103.909 C 17.706 103.887 17.828 103.865 17.95 103.84 C 18.071 103.818 18.193 103.794 18.314 103.769 C 18.436 103.745 18.558 103.718 18.679 103.694 C 18.801 103.667 18.923 103.641 19.044 103.614 C 19.166 103.585 19.287 103.559 19.409 103.53 C 19.531 103.501 19.652 103.472 19.774 103.441 C 19.896 103.41 20.017 103.379 20.139 103.348 C 20.261 103.317 20.382 103.283 20.504 103.25 C 20.626 103.217 20.747 103.184 20.869 103.148 C 20.99 103.113 21.112 103.077 21.234 103.042 C 21.355 103.004 21.477 102.966 21.599 102.928 C 21.72 102.888 21.842 102.851 21.964 102.809 C 22.085 102.769 22.207 102.729 22.328 102.684 C 22.45 102.642 22.572 102.6 22.693 102.556 C 22.815 102.511 22.937 102.465 23.058 102.42 C 23.18 102.374 23.302 102.325 23.423 102.276 C 23.545 102.227 23.666 102.179 23.788 102.127 C 23.91 102.076 24.031 102.025 24.153 101.972 C 24.275 101.919 24.396 101.863 24.518 101.808 C 24.64 101.752 24.761 101.697 24.883 101.639 C 25.004 101.579 25.126 101.522 25.248 101.46 C 25.369 101.4 25.491 101.338 25.613 101.275 C 25.734 101.211 25.856 101.147 25.978 101.08 C 26.099 101.016 26.221 100.947 26.342 100.878 C 26.464 100.81 26.586 100.741 26.707 100.668 C 26.829 100.597 26.951 100.523 27.072 100.448 C 27.194 100.375 27.316 100.297 27.437 100.219 C 27.559 100.142 27.681 100.062 27.802 99.982 C 27.924 99.9 28.045 99.818 28.167 99.734 C 28.289 99.649 28.41 99.563 28.532 99.476 C 28.654 99.387 28.775 99.299 28.897 99.208 C 29.018 99.117 29.14 99.024 29.262 98.93 C 29.383 98.835 29.505 98.74 29.627 98.64 C 29.748 98.542 29.87 98.442 29.992 98.34 C 30.113 98.238 30.235 98.134 30.357 98.03 C 30.478 97.923 30.6 97.817 30.721 97.706 C 30.843 97.597 30.965 97.486 31.086 97.371 C 31.208 97.257 31.33 97.142 31.451 97.025 C 31.573 96.907 31.695 96.787 31.816 96.665 C 31.938 96.543 32.059 96.419 32.181 96.295 C 32.303 96.168 32.424 96.039 32.546 95.909 C 32.668 95.778 32.789 95.647 32.911 95.511 C 33.032 95.376 33.154 95.238 33.276 95.101 C 33.397 94.961 33.519 94.819 33.641 94.675 C 33.762 94.531 33.884 94.387 34.006 94.238 C 34.127 94.089 34.249 93.938 34.371 93.785 C 34.492 93.632 34.614 93.477 34.735 93.317 C 34.857 93.16 34.979 93 35.1 92.836 C 35.222 92.674 35.344 92.51 35.465 92.341 C 35.587 92.172 35.708 92.004 35.83 91.831 C 35.952 91.658 36.073 91.482 36.195 91.305 C 36.317 91.127 36.438 90.945 36.56 90.763 C 36.682 90.581 36.803 90.395 36.925 90.207 C 37.047 90.018 37.168 89.829 37.29 89.634 C 37.411 89.441 37.533 89.246 37.655 89.048 C 37.776 88.849 37.898 88.649 38.02 88.445 C 38.141 88.241 38.263 88.034 38.385 87.826 C 38.506 87.617 38.628 87.404 38.749 87.191 C 38.871 86.976 38.993 86.759 39.114 86.539 C 39.236 86.319 39.358 86.098 39.479 85.873 C 39.601 85.647 39.723 85.421 39.844 85.19 C 39.966 84.959 40.087 84.726 40.209 84.491 C 40.331 84.256 40.452 84.016 40.574 83.775 C 40.696 83.535 40.817 83.291 40.939 83.045 C 41.061 82.798 41.182 82.55 41.304 82.297 C 41.425 82.046 41.547 81.791 41.669 81.534 C 41.79 81.276 41.912 81.017 42.034 80.755 C 42.155 80.493 42.277 80.227 42.399 79.961 C 42.52 79.692 42.642 79.422 42.763 79.151 C 42.885 78.878 43.007 78.603 43.128 78.323 C 43.25 78.046 43.372 77.766 43.493 77.482 C 43.615 77.201 43.737 76.914 43.858 76.626 C 43.98 76.34 44.102 76.049 44.223 75.756 C 44.345 75.463 44.466 75.168 44.588 74.871 C 44.71 74.574 44.831 74.274 44.953 73.97 C 45.075 73.669 45.196 73.365 45.318 73.058 C 45.439 72.75 45.561 72.442 45.683 72.131 C 45.804 71.818 45.926 71.505 46.048 71.19 C 46.169 70.873 46.291 70.556 46.413 70.236 C 46.534 69.917 46.656 69.595 46.778 69.271 C 46.899 68.947 47.021 68.621 47.142 68.293 C 47.264 67.964 47.386 67.634 47.507 67.303 C 47.629 66.97 47.751 66.638 47.872 66.303 C 47.994 65.967 48.116 65.63 48.237 65.291 C 48.359 64.954 48.48 64.612 48.602 64.27 C 48.724 63.929 48.845 63.585 48.967 63.241 C 49.089 62.895 49.21 62.549 49.332 62.2 C 49.453 61.854 49.575 61.504 49.697 61.153 C 49.818 60.802 49.94 60.452 50.062 60.099 C 50.183 59.746 50.305 59.391 50.427 59.036 C 50.548 58.681 50.67 58.326 50.792 57.969 C 50.913 57.612 51.035 57.255 51.156 56.895 C 51.278 56.538 51.4 56.179 51.521 55.817 C 51.643 55.458 51.765 55.096 51.886 54.737 C 52.008 54.375 52.13 54.013 52.251 53.652 C 52.373 53.29 52.494 52.926 52.616 52.564 C 52.738 52.201 52.859 51.839 52.981 51.475 C 53.103 51.111 53.224 50.75 53.346 50.386 C 53.468 50.022 53.589 49.66 53.711 49.296 C 53.833 48.935 53.954 48.571 54.076 48.209 C 54.197 47.848 54.319 47.486 54.441 47.124 C 54.562 46.763 54.684 46.401 54.806 46.042 C 54.927 45.68 55.049 45.32 55.17 44.963 C 55.292 44.604 55.414 44.247 55.535 43.889 C 55.657 43.532 55.779 43.175 55.9 42.82 C 56.022 42.465 56.144 42.112 56.265 41.76 C 56.387 41.407 56.508 41.056 56.63 40.706 C 56.752 40.357 56.873 40.009 56.995 39.663 C 57.117 39.315 57.238 38.971 57.36 38.627 C 57.482 38.285 57.603 37.943 57.725 37.604 C 57.847 37.264 57.968 36.927 58.09 36.592 C 58.211 36.257 58.333 35.922 58.455 35.592 C 58.576 35.261 58.698 34.933 58.82 34.607 C 58.941 34.28 59.063 33.956 59.184 33.635 C 59.306 33.315 59.428 32.996 59.549 32.681 C 59.671 32.366 59.793 32.053 59.914 31.742 C 60.036 31.432 60.158 31.125 60.279 30.821 C 60.401 30.517 60.523 30.218 60.644 29.921 C 60.766 29.623 60.887 29.328 61.009 29.038 C 61.131 28.747 61.252 28.461 61.374 28.177 C 61.496 27.893 61.617 27.613 61.739 27.336 C 61.861 27.059 61.982 26.788 62.104 26.517 C 62.225 26.249 62.347 25.985 62.469 25.723 C 62.59 25.463 62.712 25.206 62.834 24.953 C 62.955 24.7 63.077 24.454 63.199 24.208 C 63.32 23.964 63.442 23.724 63.563 23.489 C 63.685 23.254 63.807 23.023 63.928 22.796 C 64.05 22.57 64.172 22.348 64.293 22.133 C 64.415 21.916 64.537 21.703 64.658 21.496 C 64.78 21.288 64.901 21.086 65.023 20.888 C 65.145 20.691 65.266 20.498 65.388 20.309 C 65.51 20.123 65.631 19.939 65.753 19.761 C 65.875 19.584 65.996 19.413 66.118 19.247 C 66.239 19.078 66.361 18.916 66.483 18.761 C 66.604 18.603 66.726 18.452 66.848 18.308 C 66.969 18.162 67.091 18.022 67.213 17.889 C 67.334 17.753 67.456 17.625 67.578 17.501 C 67.699 17.378 67.821 17.261 67.942 17.148 C 68.064 17.035 68.186 16.93 68.307 16.828 C 68.429 16.728 68.551 16.633 68.672 16.544 C 68.794 16.455 68.915 16.371 69.037 16.294 C 69.159 16.216 69.28 16.145 69.402 16.081 C 69.524 16.014 69.645 15.954 69.767 15.901 C 69.889 15.848 70.01 15.799 70.132 15.757 C 70.254 15.714 70.375 15.679 70.497 15.648 C 70.618 15.619 70.74 15.595 70.862 15.577 C 70.983 15.559 71.105 15.546 71.227 15.542 C 71.348 15.535 71.47 15.535 71.591 15.542 C 71.713 15.546 71.835 15.559 71.956 15.577 C 72.078 15.595 72.2 15.619 72.321 15.648 C 72.443 15.679 72.565 15.714 72.686 15.757 C 72.808 15.799 72.929 15.848 73.051 15.901 C 73.173 15.954 73.294 16.014 73.416 16.081 C 73.538 16.145 73.659 16.216 73.781 16.294 C 73.903 16.371 74.024 16.456 74.146 16.544 C 74.268 16.633 74.389 16.728 74.511 16.828 C 74.632 16.93 74.754 17.035 74.876 17.148 C 74.997 17.261 75.119 17.378 75.241 17.501 C 75.362 17.625 75.484 17.753 75.605 17.889 C 75.727 18.022 75.849 18.162 75.97 18.308 C 76.092 18.452 76.214 18.603 76.335 18.761 C 76.457 18.916 76.579 19.078 76.7 19.247 C 76.822 19.413 76.944 19.584 77.065 19.761 C 77.187 19.939 77.308 20.123 77.43 20.309 C 77.552 20.498 77.673 20.691 77.795 20.888 C 77.917 21.086 78.038 21.288 78.16 21.496 C 78.282 21.703 78.403 21.916 78.525 22.133 C 78.646 22.348 78.768 22.57 78.89 22.796 C 79.011 23.023 79.133 23.254 79.255 23.489 C 79.376 23.724 79.498 23.964 79.619 24.208 C 79.741 24.454 79.863 24.7 79.984 24.953 C 80.106 25.206 80.228 25.463 80.349 25.723 C 80.471 25.985 80.593 26.249 80.714 26.517 C 80.836 26.788 80.958 27.059 81.079 27.336 C 81.201 27.613 81.322 27.893 81.444 28.177 C 81.566 28.461 81.687 28.747 81.809 29.038 C 81.931 29.328 82.052 29.623 82.174 29.921 C 82.296 30.218 82.417 30.517 82.539 30.821 C 82.66 31.125 82.782 31.432 82.904 31.742 C 83.025 32.053 83.147 32.366 83.269 32.681 C 83.39 32.996 83.512 33.315 83.634 33.635 C 83.755 33.956 83.877 34.28 83.999 34.607 C 84.12 34.933 84.242 35.261 84.363 35.592 C 84.485 35.922 84.607 36.257 84.728 36.592 C 84.85 36.927 84.972 37.264 85.093 37.604 C 85.215 37.943 85.336 38.285 85.458 38.627 C 85.58 38.971 85.701 39.315 85.823 39.663 C 85.945 40.009 86.066 40.357 86.188 40.706 C 86.31 41.056 86.431 41.407 86.553 41.76 C 86.675 42.112 86.796 42.465 86.918 42.82 C 87.039 43.175 87.161 43.532 87.283 43.889 C 87.404 44.247 87.526 44.604 87.648 44.963 C 87.769 45.32 87.891 45.68 88.013 46.042 C 88.134 46.401 88.256 46.763 88.377 47.124 C 88.499 47.486 88.621 47.848 88.742 48.209 C 88.864 48.571 88.986 48.935 89.107 49.296 C 89.229 49.66 89.35 50.022 89.472 50.386 C 89.594 50.75 89.715 51.111 89.837 51.475 C 89.959 51.839 90.08 52.201 90.202 52.564 C 90.324 52.926 90.445 53.29 90.567 53.652 C 90.689 54.013 90.81 54.375 90.932 54.737 C 91.053 55.096 91.175 55.458 91.297 55.817 C 91.418 56.179 91.54 56.538 91.662 56.895 C 91.783 57.255 91.905 57.612 92.027 57.969 C 92.148 58.326 92.27 58.681 92.391 59.036 C 92.513 59.391 92.635 59.746 92.756 60.099 C 92.878 60.452 93 60.802 93.121 61.153 C 93.243 61.504 93.365 61.854 93.486 62.2 C 93.608 62.549 93.729 62.895 93.851 63.241 C 93.973 63.585 94.094 63.929 94.216 64.27 C 94.338 64.612 94.459 64.954 94.581 65.291 C 94.703 65.63 94.824 65.967 94.946 66.303 C 95.067 66.638 95.189 66.97 95.311 67.303 C 95.432 67.634 95.554 67.964 95.676 68.293 C 95.797 68.621 95.919 68.947 96.041 69.271 C 96.162 69.595 96.284 69.917 96.405 70.236 C 96.527 70.556 96.649 70.873 96.77 71.19 C 96.892 71.505 97.014 71.818 97.135 72.131 C 97.257 72.442 97.379 72.75 97.5 73.058 C 97.622 73.365 97.744 73.669 97.865 73.97 C 97.987 74.274 98.108 74.574 98.23 74.871 C 98.352 75.168 98.473 75.463 98.595 75.756 C 98.717 76.049 98.838 76.34 98.96 76.626 C 99.081 76.914 99.203 77.201 99.325 77.482 C 99.446 77.766 99.568 78.046 99.69 78.323 C 99.811 78.603 99.933 78.878 100.055 79.151 C 100.176 79.422 100.298 79.692 100.42 79.961 C 100.541 80.227 100.663 80.493 100.784 80.755 C 100.906 81.017 101.028 81.276 101.149 81.534 C 101.271 81.791 101.393 82.046 101.514 82.297 C 101.636 82.55 101.757 82.798 101.879 83.045 C 102.001 83.291 102.122 83.535 102.244 83.775 C 102.366 84.016 102.487 84.256 102.609 84.491 C 102.731 84.726 102.852 84.959 102.973 85.19 C 103.095 85.421 103.217 85.647 103.339 85.873 C 103.46 86.098 103.582 86.319 103.704 86.539 C 103.825 86.759 103.947 86.976 104.069 87.191 C 104.191 87.404 104.312 87.617 104.434 87.826 C 104.556 88.034 104.676 88.241 104.798 88.445 C 104.92 88.649 105.041 88.849 105.163 89.048 C 105.285 89.246 105.407 89.441 105.528 89.634 C 105.65 89.829 105.772 90.018 105.893 90.207 C 106.015 90.395 106.137 90.581 106.259 90.763 C 106.379 90.945 106.501 91.127 106.623 91.305 C 106.744 91.482 106.866 91.658 106.988 91.831 C 107.109 92.004 107.231 92.172 107.353 92.341 C 107.475 92.51 107.596 92.674 107.718 92.836 C 107.84 93 107.962 93.16 108.083 93.317 C 108.204 93.477 108.325 93.632 108.447 93.785 C 108.569 93.938 108.691 94.089 108.812 94.238 C 108.934 94.387 109.056 94.531 109.177 94.675 C 109.299 94.819 109.421 94.961 109.543 95.101 C 109.664 95.238 109.786 95.376 109.907 95.511 C 110.028 95.647 110.15 95.778 110.272 95.909 C 110.393 96.039 110.515 96.168 110.637 96.295 C 110.759 96.419 110.88 96.543 111.002 96.665 C 111.124 96.787 111.246 96.907 111.367 97.025 C 111.489 97.142 111.611 97.257 111.731 97.371 C 111.853 97.486 111.975 97.597 112.096 97.706 C 112.218 97.817 112.34 97.923 112.462 98.03 C 112.583 98.134 112.705 98.238 112.827 98.34 C 112.948 98.442 113.07 98.542 113.192 98.64 C 113.314 98.74 113.434 98.835 113.556 98.93 C 113.677 99.024 113.799 99.117 113.921 99.208 C 114.043 99.299 114.164 99.387 114.286 99.476 C 114.408 99.563 114.53 99.649 114.651 99.734 C 114.773 99.818 114.895 99.9 115.016 99.982 C 115.138 100.062 115.259 100.142 115.38 100.219 C 115.502 100.297 115.624 100.375 115.746 100.448 C 115.867 100.523 115.989 100.597 116.111 100.668 C 116.232 100.741 116.354 100.81 116.476 100.878 C 116.598 100.947 116.719 101.016 116.841 101.08 C 116.962 101.147 117.083 101.211 117.205 101.275 C 117.327 101.338 117.448 101.4 117.57 101.46 C 117.692 101.522 117.814 101.579 117.935 101.639 C 118.057 101.697 118.179 101.753 118.3 101.808 C 118.422 101.863 118.544 101.919 118.666 101.972 C 118.786 102.025 118.908 102.076 119.03 102.127 C 119.151 102.178 119.273 102.227 119.395 102.276 C 119.516 102.325 119.638 102.374 119.76 102.42 C 119.882 102.465 120.003 102.511 120.125 102.556 C 120.247 102.6 120.369 102.642 120.489 102.684 C 120.611 102.729 120.732 102.769 120.854 102.809 C 120.976 102.851 121.098 102.889 121.219 102.928 C 121.341 102.966 121.463 103.004 121.585 103.042 C 121.706 103.077 121.828 103.112 121.95 103.148 C 122.071 103.184 122.193 103.217 122.314 103.25 C 122.435 103.283 122.557 103.317 122.679 103.348 C 122.8 103.379 122.922 103.41 123.044 103.441 C 123.166 103.472 123.287 103.501 123.409 103.53 C 123.531 103.559 123.653 103.585 123.774 103.614 C 123.896 103.641 124.016 103.667 124.138 103.694 C 124.26 103.718 124.382 103.745 124.503 103.769 C 124.625 103.794 124.747 103.818 124.869 103.84 C 124.99 103.865 125.112 103.887 125.234 103.909 C 125.355 103.931 125.477 103.953 125.599 103.973 C 125.721 103.996 125.841 104.016 125.963 104.035" title="t (1/sqrt(2*pi)) * exp(-pow(t,2)/2)" id="path271"/>
  <text style="font-size: 48.9137px; fill: rgb(0, 0, 0); fill-opacity: 1; stroke: rgb(0, 0, 0); stroke-width: 2.27855; stroke-linecap: round; stroke-linejoin: round; stroke-dasharray: none; stroke-opacity: 0.981088; white-space: pre;" x="59.637222" y="159.26785" id="text438-3" transform="matrix(0.912171, 0, 0, 1.096285, -43.162888, -98.529289)"> </text>
</svg>