<?xml version="1.0" encoding="UTF-8"?>
<svg version="1.1" viewBox="0 0 343.2 393.23" xmlns="http://www.w3.org/2000/svg">
<g transform="translate(-1620.4 -596.21)">
<g fill="none" stroke="#000" stroke-linecap="round" stroke-linejoin="round" stroke-opacity=".98109">
<path transform="matrix(1.1463 0 0 1.1419 535.25 -197.36)" d="m1241.7 783.25v167.81l-145.32 83.903-145.32-83.903v-167.81l145.32-83.903z" stroke-width="8.7404" style="paint-order:normal"/>
<path transform="matrix(.90238 0 0 .91644 763.38 35.209)" d="m1139.9 668.79 124.65 215.89-249.29-1e-5z" stroke-width="10.996" style="paint-order:normal"/>
<path d="m1792 601.21v46.91l166.59 48.898" stroke-width="10" style="paint-order:normal"/>
<path d="m1792 648.12-166.59 48.898" stroke-width="10" style="paint-order:normal"/>
<path d="m1679.5 845.97-54.113-148.96" stroke-width="10" style="paint-order:normal"/>
<path d="m1625.4 888.63 54.113-42.657" stroke-width="10" style="paint-order:normal"/>
<path d="m1679.5 845.97 112.48 138.46 112.48-138.46" stroke-width="10" style="paint-order:normal"/>
<path d="m1958.6 888.63-54.113-42.657" stroke-width="10" style="paint-order:normal"/>
<path d="m1958.6 697.02-54.113 148.96" stroke-width="10" style="paint-order:normal"/>
</g>
</g>
</svg>
